<svg xmlns="http://www.w3.org/2000/svg" width="843.946" height="429.38" viewBox="0 0 843.946 429.38"><defs><style>.a{opacity:0.593;}.b{fill:#3f3d56;}.c{fill:none;stroke:#38d39f;stroke-miterlimit:10;stroke-width:2px;opacity:0.8;}.d{fill:#38d39f;}</style></defs><g class="a" transform="translate(-68.095 -200.711)"><path class="b" d="M276.02,257.678a27.926,27.926,0,0,0-1.825-6.988,3.163,3.163,0,0,0-1.608-1.98,3.313,3.313,0,0,0-1.6-.018l-8.192,1.253a3.14,3.14,0,0,0-1.869.726c-1.067,1.122-.016,2.929-.049,4.477a4.208,4.208,0,0,1-3.261,3.621,12.325,12.325,0,0,1-5.181-.064l-11.454-1.78a18.886,18.886,0,0,0,8.665-5.783c1.507-1.786,2.309-5.119.131-5.965a5.347,5.347,0,0,0-1.989-.16c-5.19.04-9.273-4.293-14.132-6.118a15.625,15.625,0,0,0-17.585,5.242l6.1.294a2.709,2.709,0,0,1,1.625.433c1.337,1.1-.325,3.209-.137,4.93.245,2.235,3.213,2.712,5.45,2.939s5.075,2.044,4,4.018c-11.245,3.873-22.687-7.571-34.5-6.162-2.989.357-5.811,1.531-8.729,2.269-17.826,4.51-36.254-7.523-54.464-4.975a69.162,69.162,0,0,0-11.889,3.136c-2.478.814-5.064,1.693-6.864,3.58s-2.486,5.115-.78,7.088a39.893,39.893,0,0,1-13.981-1.329,7.833,7.833,0,0,1,4.027,6.9,82.946,82.946,0,0,0-21.25,6.479,35.79,35.79,0,0,0,4.4,5.859l-9.295,5.971a5.3,5.3,0,0,1,2.938,7.747c3.256-1.448,5.274-5.2,8.756-5.955,2.281-.5,4.6.435,6.766,1.312s4.542,1.727,6.782,1.069,3.892-3.562,2.469-5.413a115.9,115.9,0,0,1,29.44-4.6,3.692,3.692,0,0,1,2.23.423c1.3.9.956,2.845.886,4.423s1.16,3.652,2.571,2.941c-1.659,1.439-.241,4.148,1.351,5.661s3.511,3.6,2.536,5.569c-.254.514-.686.925-.931,1.443-.722,1.53.425,3.314,1.778,4.33s3.01,1.726,3.95,3.133.513,3.87-1.168,4.066l-4.777-6.065a12.436,12.436,0,0,0-3.227,6.115,12.831,12.831,0,0,1,1.587,17.552c-2.167,2.546-5.249,4.093-7.939,6.079s-5.179,4.814-5.172,8.157c.012,5.776-.46,11.143,1.7,16.5a254.161,254.161,0,0,0,13.8,28.786c1.365,2.441,3.129,5.117,5.894,5.537q-5.242-12.761-9.438-25.919c1.822.007,3.927.152,5,1.628.884,1.222.694,2.884.969,4.367a13.53,13.53,0,0,0,1.725,4.056l16.688,29.726c1.383,2.464,2.97,5.109,5.614,6.107,1.69.638,3.646.518,5.2,1.436,1.22.72,2.041,2,3.284,2.676,3.515,1.918,8.4-1.76,11.689.53a32.893,32.893,0,0,1,2.4,2.444c3.034,2.628,8.012.87,11.514,2.83,2.257,1.263,3.427,3.79,4.631,6.079,3.016,5.735,7.9,11.354,14.36,11.81,2.03.143,4.1-.242,6.089.21s3.938,2.184,3.62,4.194c-.546,3.446,1.157,7.22.7,10.68-.833,6.3-9.771,9.07-10.539,15.38a35.7,35.7,0,0,1-.234,4.16c-.4,1.657-1.648,3.007-2.09,4.654-.838,3.122,1.4,6.229,3.855,8.329s5.388,3.911,6.731,6.851c1.42,3.108.722,6.731,1.184,10.116,1.008,7.39,7.391,12.869,13.96,16.4,2,1.076,4.15,2.118,5.446,3.985,1.691,2.437,1.522,5.65,2.087,8.561,1.383,7.131,7.386,13.007,7.557,20.269.121,5.162-2.748,9.844-4.462,14.715a34.316,34.316,0,0,0,2.8,28.46,45.576,45.576,0,0,1,3.723,6.553c1.619,4.188,1.093,8.949,2.586,13.184,1.973,5.6,7.395,10.224,6.876,16.137,2.461,5.111,7.9,7.623,13.362,9.144l9.795,2.727a12.585,12.585,0,0,0,5.745.67c1.91-.378,3.732-1.964,3.683-3.91-4.8-1.083-9.761-2.235-13.72-5.162s-6.672-8.139-5.17-12.828c.7-2.174,2.179-4.685.77-6.482-.807-1.029-2.282-1.3-3.192-2.236-1.419-1.464-.932-3.923.089-5.688s2.5-3.343,2.907-5.34a5.571,5.571,0,0,0-2.612-5.8,13.847,13.847,0,0,0,4.848-3.111c1.275-1.456,1.864-3.7.861-5.356,2.978.378,6.494.563,8.45-1.716,1.561-1.819,1.454-4.539.837-6.856s-1.66-4.567-1.692-6.964a126.9,126.9,0,0,0,20.589-.7,13.35,13.35,0,0,0-6.26-7.839c3.095-.524,5.914-4.228,6.891-7.211a18.552,18.552,0,0,0,.124-9.311,5,5,0,0,1-.093-2.439,4.754,4.754,0,0,1,2.449-2.368l15.36-8.821a8.945,8.945,0,0,0,2.456-1.813c1.609-1.89,1.371-4.744.547-7.086s-2.144-4.544-2.461-7.006c-.949-7.364,6.933-12.647,9.594-19.579a29.5,29.5,0,0,0,1.459-8.584c.217-3.122.233-6.748-2.164-8.76-2.3-1.928-5.888-1.5-8.292-3.292-2.2-1.645-2.965-4.839-5.373-6.167-2.187-1.206-4.929-.439-7.361-1.007-4.283-1-6.978-5.935-11.351-6.392-2.468-.258-5.261.949-7.283-.489-1.782-1.266-1.854-3.812-2.193-5.972a16.677,16.677,0,0,0-13.46-13.5c-2.544-.408-5.314-.253-7.479-1.651-2.192-1.416-3.2-4.067-4.918-6.027-2.775-3.16-7.145-4.283-11.239-5.245l-16.652-3.915c-2.956-.695-6.766-1.063-8.353,1.526a11.97,11.97,0,0,0-.988,3.108,9.623,9.623,0,0,1-9.05,6.812,10.7,10.7,0,0,0-6.311-4.883c-1.689-.471-3.5-.523-5.106-1.215a7.173,7.173,0,0,1-3.112-9.95,8.929,8.929,0,0,0-1.526-10.74c-2.832-2.542-6.928-3.157-10.725-2.9-.995-2.17.668-4.618,2.46-6.2s3.968-3.127,4.358-5.482c.614-3.7-4.113-6.518-7.7-5.413s-5.879,4.59-7.393,8.026a23.629,23.629,0,0,1-2.978,5.71c-1.37,1.662-3.577,2.853-5.664,2.319-2.955-.755-4.1-4.266-4.75-7.245-.878-4-1.76-8.049-1.576-12.137s1.562-8.285,4.576-11.053c4.912-4.51,12.448-4.068,19.077-3.348-1.566-1.765-1.179-4.739.5-6.4a7.276,7.276,0,0,1,6.595-1.62,9.088,9.088,0,0,1,5.109,3.055c1.884,2.3,2.42,5.4,3.844,8s4.626,4.831,7.246,3.432c2.264-1.208,2.623-4.347,2.059-6.85s-1.76-4.937-1.556-7.495c.389-4.88,5.448-7.818,9.913-9.828s9.576-4.713,10.283-9.557a8.714,8.714,0,0,1,.53-2.777,5.449,5.449,0,0,1,2-1.88c13.029-8.61,26.275-17.326,41.166-22.031.775-.245.866.027,1.655-.165,1.1-.639.373-2.405-.687-3.117s-2.476-1.258-2.744-2.505c-.2-.917.343-1.818.483-2.745a3.428,3.428,0,0,0-4.5-3.473c-1.2-1.584,1.171-3.425,3.085-3.952a83.77,83.77,0,0,1,17.6-2.875,3.17,3.17,0,0,1,2,.341c1,.692.872,2.281.163,3.269a19.23,19.23,0,0,1-2.693,2.445,7.352,7.352,0,0,0-1.907,7.394c3.107,1.58,6.485,3.207,9.926,2.651s6.5-4.423,4.878-7.511c-1.506-2.876-6.031-3.524-6.809-6.676-.911-3.69,4.312-6.972,3.136-10.586-.515-1.583-2.093-2.515-3.3-3.658a9.924,9.924,0,0,1-2.172-11,12.521,12.521,0,0,1-10.981-3.437c-2.627-2.651-4.722-6.832-8.452-6.714-3.423.109-6.371,4.1-9.571,2.884-.787-.3-1.618-.91-2.38-.552a1.967,1.967,0,0,0-.888,1.474c-.813,3.889.586,8.319-1.534,11.679-2.306,3.657-7.641,4.163-10.437,7.461-1.518,1.79-2.106,4.2-3.5,6.089s-4.356,3.087-6.03,1.442a8.311,8.311,0,0,0-2.258-10.106,22.182,22.182,0,0,0-4.987-2.426,29.575,29.575,0,0,1-5.571-3.105,5.489,5.489,0,0,1-2.045-2.189,4.987,4.987,0,0,1,.14-3.461,14.151,14.151,0,0,1,11.261-9.334c2.229-.3,4.823-.2,6.3-1.895.781-.9,1.19-2.257,2.323-2.622a3.426,3.426,0,0,1,2.145.264l8.32,2.928a5.838,5.838,0,0,0,2.964.49,2.009,2.009,0,0,0,1.737-2.112c-.266-1.382-2.392-2.045-2.2-3.438a2.3,2.3,0,0,1,.7-1.17,29.746,29.746,0,0,1,23.592-9.316c1.05,1.725-.611,3.767-1.993,5.239s-2.492,4.1-.821,5.236a4.583,4.583,0,0,0,2.215.5,19.345,19.345,0,0,1,5.9,1.788q4.313,1.877,8.46,4.107a10.726,10.726,0,0,1,.214-5.448c.691-1.7,2.655-3.041,4.37-2.378,1.653.64,2.5,2.828,4.262,3.029,2.349.268,3.276-3.2,2.295-5.354s-2.924-3.952-3.086-6.311c-.109-1.591.5-3.565-.775-4.529a3.46,3.46,0,0,0-1.5-.526l-31.739-5.841c-1.885-.347-4.608-.081-4.691,1.834-.047,1.069.908,2.126.485,3.108-.451,1.049-1.934.953-3.013,1.324-1.675.576-2.516,2.565-2.355,4.329a12.046,12.046,0,0,0,1.988,4.879C281.211,258.7,278.085,258.542,276.02,257.678Z" transform="translate(-11.697 -17.576)"/><path class="b" d="M287.469,228.93a10.278,10.278,0,0,0-11.29,3.381,2.261,2.261,0,0,0-.524,2.382c.627,1.068,2.225.646,3.4.264a8.567,8.567,0,0,1,5.377-.128c1.107.38,2.1,1.051,3.208,1.417a3.23,3.23,0,0,0,3.294-.481,4.288,4.288,0,0,0,.812-3.077,2.474,2.474,0,0,0-.631-2.034,3.233,3.233,0,0,0-1.458-.431,5.022,5.022,0,0,1-2.939-1.717" transform="translate(-48.47 -15.771)"/><path class="b" d="M303.7,225.126a2.615,2.615,0,0,0-2.527,3.682,10.6,10.6,0,0,0,4.225.276,3.611,3.611,0,0,0,2.953-2.708,6.8,6.8,0,0,1-4.814-.919" transform="translate(-53.256 -15.153)"/><path class="b" d="M349.113,217.772a48.6,48.6,0,0,0-10.835,3.681,8.141,8.141,0,0,1,5.2,8.176,4.257,4.257,0,0,0,.049,2.022c.4.965,1.551,1.327,2.565,1.574a16.909,16.909,0,0,0,5.625.718,5.73,5.73,0,0,0,4.656-2.845,20.3,20.3,0,0,1,.968-2.289c2.43-3.7,9.649.774,12.257-2.8.919-1.26.835-3.157,2.033-4.155a4.567,4.567,0,0,1,2.09-.8,146.777,146.777,0,0,1,15.875-2.261c2.525-.22,5.816-1.126,5.837-3.661a43.973,43.973,0,0,0-28.05,3.774c-3.127,1.566-7.262,4.861-10.274,2.784-1.128-.777-1.072-2.871-2.624-3.745C352.9,217.051,350.8,217.414,349.113,217.772Z" transform="translate(-60.272 -13.121)"/><path class="b" d="M389.554,223.478l4.464.858a5.785,5.785,0,0,0-6.02,6.269c4.181,1.4,8.738.038,13.142.223s9.528,3.331,8.776,7.675c-.227,1.313-.986,2.626-.591,3.9a14.512,14.512,0,0,0,1.508,2.347c.925,1.712.186,3.878-.983,5.435s-2.74,2.8-3.766,4.453c-2.551,4.114-1.1,9.434.418,14.03a12.368,12.368,0,0,0,2.378,4.75c2.252,2.394,5.921,2.6,9.208,2.65,2.392.035,5.132-.083,6.645-1.937,1.975-2.419.594-6.194,1.894-9.034,1.181-2.579,4.189-3.685,6.915-4.47,4.994-1.438,10.083-2.66,14.8-4.831,5.862-2.7,11.341-6.9,17.784-7.245a24.412,24.412,0,0,0,5.4-.379c1.741-.5,3.4-2,3.263-3.806-.113-1.543-1.418-2.675-2.438-3.838s-1.821-2.951-.883-4.181l16.888-3.154c-1.2-3.262-2.13-7.559.621-9.683.993-.766,2.322-1.072,3.167-2,1.44-1.579.716-4.3-.947-5.641s-3.911-1.654-6.04-1.831a162.074,162.074,0,0,0-22.273.2l-43.511,2.385c-2.92.16-6.291-.084-8.969.912-2.267.843-3.879,2.391-6.472,2.935C399.153,221.47,393.885,220.791,389.554,223.478Z" transform="translate(-69.611 -13.011)"/><path class="b" d="M487.982,268.435a1.8,1.8,0,0,0-1.3.295,1.641,1.641,0,0,0-.423,1,6.617,6.617,0,0,0,.961,4.736,4.638,4.638,0,0,0,4.246,2.035c2.01-.256,3.492-1.971,5.34-2.808,2.848-1.289,14.944-3.3,6.577-7.818-2.884-1.558-4.747-.183-7.02.843A15.971,15.971,0,0,1,487.982,268.435Z" transform="translate(-88.062 -22.68)"/><path class="b" d="M578.061,221.93a4.779,4.779,0,0,0-2.325,2.023,2.042,2.042,0,0,0,.766,2.708,3.048,3.048,0,0,0,1.14.181l3.973.119c1.688.05,3.8.41,4.25,2.036.337,1.208-.417,2.76.492,3.623a2.562,2.562,0,0,0,1.351.527,9.21,9.21,0,0,0,4,.129c2.891-.775,1.372-2.54,2.282-4.111,1.393-2.4,1.152-.949,3.606-2.326,1.813-1.017,4.155-2.863,2.642-5.456C597.611,216.875,581.943,219.993,578.061,221.93Z" transform="translate(-104.851 -14.015)"/><path class="b" d="M671.1,219.7l-2.307.308a92.921,92.921,0,0,0-15.444,2.957,25.7,25.7,0,0,0,6.764,1.66,20.774,20.774,0,0,1,3.789.539c2.213.659,4.443,2.36,6.581,1.489,1.326-.54,1.758-1.921,2.856-2.652.758-.505,3.634-1.323,3.956-1.833C679.9,218.046,673.1,219.434,671.1,219.7Z" transform="translate(-119.481 -14.052)"/><path class="b" d="M685.231,232.218a43.257,43.257,0,0,0-8.513,6.234c-1.084,1.019-2.191,2.286-2.093,3.771.13,1.973,2.232,3.117,4.053,3.888l7.375,3.122c.895-1.261.076-3-.849-4.241s-2.023-2.673-1.615-4.164c.466-1.7,2.541-2.282,4.281-2.575,2.835-.478,10.482-.439,9.563-5.008C696.349,227.863,688.076,230.627,685.231,232.218Z" transform="translate(-123.477 -16.084)"/><path class="b" d="M685.744,600.7a7.037,7.037,0,0,0,.446,6.2,6.283,6.283,0,0,0,6.449,2.228,11.618,11.618,0,0,0,5.988-3.85A20.621,20.621,0,0,0,702.071,600a41.229,41.229,0,0,0,2.553-9.341l2.29-12.022c.512-2.687.492-10.924-4.446-8.24-1.349.733-4.473,6.522-5.887,8.163-2.548,2.959-2.885,5.829-4.227,9.414C690.674,592.466,687.3,596.208,685.744,600.7Z" transform="translate(-125.473 -79.938)"/><path class="b" d="M1005.406,683.08a36,36,0,0,1-4.692-2.234,39.547,39.547,0,0,0-2.379,12.965l11.057-6.257c1.663-.941,3.548-2.249,3.513-4.16a1.317,1.317,0,0,0-.611-1.2,1.49,1.49,0,0,0-.775-.091,18.714,18.714,0,0,0-4.681,1.5c-1.547.561-3.355.857-4.775.025" transform="translate(-184.31 -100.793)"/><path class="b" d="M1074.724,687.277a23.921,23.921,0,0,0-3.546,1.273c-2.537,1.291-4.264,3.743-6.547,5.444a25.965,25.965,0,0,1-7.4,3.389,1.773,1.773,0,0,0,.414,2.614,5.129,5.129,0,0,0,2.92.656c2.683.059,5.509.085,7.859-1.211a24.772,24.772,0,0,0,3.7-2.937,39.181,39.181,0,0,1,9.312-5.266,10.68,10.68,0,0,0,3.246-1.941c2.052-2.022,2.2-5.141-.763-5.829C1081.531,682.913,1077,686.541,1074.724,687.277Z" transform="translate(-195.299 -101.275)"/><path class="b" d="M1108.343,665.692a9.224,9.224,0,0,0-2.822-7.558c-.03,2.784-.115,5.749-1.68,8.051-1.115,1.64-2.864,2.748-4.087,4.31s-1.765,4.038-.331,5.409a5.373,5.373,0,0,0,3.184,1.1c2.853.336,6.156.523,8.157-1.538,1.092-1.125,1.624-2.792,2.956-3.619a3.6,3.6,0,0,0,1.3-.928c.55-.875-.324-2.027-1.308-2.342s-2.068-.167-3.057-.466-1.9-1.411-1.389-2.311" transform="translate(-203.146 -96.525)"/><path class="b" d="M1043.846,539.548a12.833,12.833,0,0,1-4.577.27c-2.54-.467-4.517-2.382-6.568-3.952a28.973,28.973,0,0,0-16.928-5.914c-5.573-.105-11.2,1.4-16.671.351.358,1.989,2.06,3.481,3.875,4.368s3.82,1.333,5.645,2.2a13.479,13.479,0,0,1,6.529,6.792,19.166,19.166,0,0,0,1.848,4.063c1.82,2.448,5.268,2.986,8.312,2.786,3.969-.261,8.113-1.4,11.8.076,2.825,1.131,4.846,3.6,7.2,5.525s5.68,3.349,8.388,1.962a13.865,13.865,0,0,1-9.594-13.342c2.656.244,10.305.15,9.893-4.363C1052.657,536.545,1046.126,539.135,1043.846,539.548Z" transform="translate(-184.454 -72.436)"/><path class="b" d="M993.062,577.059c.472-2.586,3.051-4.87,2.248-7.374-.556-1.731-2.563-2.585-4.38-2.628s-3.6.5-5.421.55a26.39,26.39,0,0,0-3.549.05c-3.608.593-5.832,4.374-9.231,5.719-2.067.817-4.39.661-6.54,1.226-4.881,1.283-7.969,5.895-11.38,9.613a40.613,40.613,0,0,1-20.614,12.022c-2.775.643-5.758,1.054-7.964,2.856-2.921,2.387-3.64,6.478-4.29,10.194a168.359,168.359,0,0,1-8.2,30.088l11.589,1.48a15.758,15.758,0,0,0,6.609-.1,19.193,19.193,0,0,0,4.347-2.316,43.4,43.4,0,0,1,16.956-6.12,18,18,0,0,1,9.064.635c2.848,1.128,5.291,3.686,5.53,6.74a7.119,7.119,0,0,1,7.115,1.73,12.369,12.369,0,0,1,3.4,6.782c.305,1.585.611,3.485,2.082,4.15,1.2.543,2.577-.042,3.89-.147,4.456-.357,8.153,4.838,12.532,3.944,4.7-.959,5.85-7.993,10.432-9.4,2.632-.809,6.323.175,7.583-2.273,1.111-2.157-1.105-4.648-.877-7.063.281-2.975,3.79-4.238,6.5-5.507,9.326-4.376,13.751-16.928,9.232-26.185-2.677-5.485-7.946-9.8-8.919-15.828-.749-4.636,1.079-10.042-1.877-13.691-1.5-1.856-4.05-2.881-4.944-5.1-.563-1.394-.337-2.976-.64-4.449s-1.588-3.014-3.043-2.632c-4.222,1.108-5.569,14.15-7.83,17.319C999.034,586.166,991.98,582.993,993.062,577.059Z" transform="translate(-168.414 -78.83)"/><path class="b" d="M913.934,547.719c-1.443-.4-3.018-.8-4.4-.225s-2.19,2.608-1.08,3.615c8.68-.338,17.413-.674,26.019.5,9.915,1.358,19.729,4.722,29.688,3.733a151.1,151.1,0,0,0-17.319-4.019l-9.75-1.862a75.32,75.32,0,0,0-7.917-1.223C923.612,547.782,919.4,549.252,913.934,547.719Z" transform="translate(-167.322 -75.679)"/><path class="b" d="M924.1,508.191c-.721-.06-1.613-.112-1.986.507-.356.592.051,1.374-.14,2.038-.262.907-1.449,1.138-2.385,1.015a4.569,4.569,0,0,0-2.777.032,2.354,2.354,0,0,0-.91,2.673,6.884,6.884,0,0,0,1.605,2.558,26.144,26.144,0,0,0,4.164,4.177c2.983,2.2,7.025,3.263,8.9,6.46a4.285,4.285,0,0,0,1.189,1.6c.9.571,2.078.137,3.05-.307l3.4-1.555a3.865,3.865,0,0,0,1.591-1.082c.778-1.055.3-2.556-.353-3.693s-1.488-2.313-1.348-3.617c.25-2.324,3.238-3.213,4.466-5.2,1.238-2,.432-4.587.575-6.938.167-2.75,1.9-6.328-.885-8.383-2.363-1.746-4.622-.133-6.318,1.8C932.368,504.337,930.676,508.74,924.1,508.191Z" transform="translate(-168.797 -66.382)"/><path class="b" d="M951.323,458.156c1.162,2.225,3.585,3.553,4.853,5.72,1.374,2.349,1.217,5.384,2.707,7.661,1.529,2.336,4.606,3.576,5.464,6.233.936,2.9-1.188,6.426.505,8.961a3.761,3.761,0,0,0,5.518.507,4.047,4.047,0,0,0-.167-5.647c-1-.914-2.442-1.309-3.279-2.377a4.99,4.99,0,0,1-.849-2.068,13.534,13.534,0,0,1,.213-6.488,2.886,2.886,0,0,0,.163-1.7c-.377-1.1-1.86-1.173-2.9-1.681-2.364-1.154-2.307-4.49-1.894-7.089-.275,1.73-6.436-1.212-7.082-2.192-1.282-1.946-.584-5.7-.838-7.852C950.969,451.482,949.9,455.435,951.323,458.156Z" transform="translate(-175.358 -57.44)"/><path class="b" d="M873.735,501.694c-1.137-1.273-2.85-2.6-4.375-1.837a2.769,2.769,0,0,0-1.027,3.415,7.518,7.518,0,0,0,2.481,2.957c3.177,2.62,6.6,4.986,9.371,8.032,4.96,5.451,7.588,12.807,12.983,17.829a7.282,7.282,0,0,0,4.088,2.212c1.572.146,3.337-.86,3.517-2.428.149-1.292-.752-2.448-1.632-3.405-2.1-2.279-4.39-4.378-6.368-6.759a5.68,5.68,0,0,1-1.628-3.4c-.01-1.282,1.159-2.625,2.4-2.307-1.511-.386-2.632-2.9-4.85-3.377-1.854-.4-2.3.752-4.508-.194C879.982,510.627,876.682,504.992,873.735,501.694Z" transform="translate(-159.843 -66.739)"/><path class="b" d="M991.607,349.182a34.834,34.834,0,0,1-3.555-1.27c-3.124-.938-7.257,1.358-6.84,4.593.276,2.149,2.277,3.6,3.381,5.463,1.638,2.765,1.2,6.271.341,9.367A7.321,7.321,0,0,1,983.752,370a9.024,9.024,0,0,1-2.8,2.013A37.441,37.441,0,0,0,970,381.321a2.682,2.682,0,0,0-.662,1.247c-.149,1.092.949,1.888,1.569,2.8,1.379,2.023.382,4.746.519,7.191a2.033,2.033,0,0,0,.857,1.784c.831.422,1.816-.295,2.266-1.111,1.495-2.708.369-7.055,3.173-8.36.531-.247,1.173-.351,1.527-.817.561-.739.02-1.834.3-2.717.427-1.326,2.241-1.386,3.634-1.327a20.621,20.621,0,0,0,7.084-.943,4.715,4.715,0,0,0,2.345-1.358c.838-1.046.764-2.534.6-3.864a52.376,52.376,0,0,0-6.188-18.881c2.463.315,5.143.587,7.268-.7,1.19-.719,2.617-2.868,2.027-4.331C995.387,347.621,993.7,349.569,991.607,349.182Z" transform="translate(-178.858 -38.188)"/><path class="b" d="M584.492,390.421a9.486,9.486,0,0,1,.066,4.768c-.518,1.522-2.148,2.795-3.687,2.328-1.194-.362-1.884-1.563-2.732-2.479-4.717-5.092-15.358-2.144-18.272-8.443-1.189-2.571-.381-5.651-1.192-8.365a7.446,7.446,0,0,0-7.54-5.122,15.494,15.494,0,0,0-4.339,1.3,109.405,109.405,0,0,1-28.749,7.19,23.615,23.615,0,0,0-5.524,1.005c-4.051,1.468-6.818,5.224-8.788,9.056s-3.424,7.98-6.064,11.385c-2.775,3.578-6.664,6.083-10.292,8.793a10.5,10.5,0,0,0-3.4,3.558,11.13,11.13,0,0,0-.681,5.287l.741,21.8c.1,2.8.215,5.708,1.47,8.217,1.567,3.133,4.663,5.186,6.81,7.954a15.578,15.578,0,0,1,3.232,9.948c-.046,1.443-.189,3.15.935,4.056a4.111,4.111,0,0,0,2.3.661l29.488,2.413c5.187.425,10.936,1.123,14.322,5.075,1.6,1.865,2.882,4.547,5.33,4.747a19.794,19.794,0,0,0,3.122-.428c2.65-.21,4.978,1.8,6.447,4.017a17.82,17.82,0,0,1,2.862,11.435c-.241,2.527-1.024,4.984-1.193,7.516-.643,9.638,7.527,18.011,7.686,27.669.093,5.681-2.6,10.988-5.233,16.025,4.243,6.428.769,14.988,2.458,22.5,1.6,7.13,7.547,12.711,9.029,19.867.678,3.276.717,7.307,3.606,8.995a8.22,8.22,0,0,0,4.081.817,53.794,53.794,0,0,0,24.5-5.577c3.572-1.772,7.274-4.419,7.9-8.357.5-3.176-1.108-6.729.531-9.5,1.932-3.261,6.881-3,9.724-5.509,4.612-4.067,1.016-11.824,2.884-17.682,1.679-5.266,7.461-8.063,10.327-12.789a22.73,22.73,0,0,0,2.4-6.5,92.76,92.76,0,0,0,2.441-16.588,99.329,99.329,0,0,1,.751-10.16c3.09-19.2,22.067-32.05,28.228-50.49.588-1.761.865-4.107-.7-5.1a4.487,4.487,0,0,0-2.984-.312L653.2,457.11a9.357,9.357,0,0,1-5.029-.289c-1.551-.7-2.662-2.663-1.839-4.153,2.309-4.182-2.44-9.467-4.55-13.752a202.924,202.924,0,0,0-20.208-32.773,3.333,3.333,0,0,1-.886-1.924l3.858.129c-1.3-4.673-3.451-9.787-7.991-11.5-2.558-.963-5.391-.63-8.121-.481C600.611,392.8,592.23,391.618,584.492,390.421Z" transform="translate(-87.52 -42.96)"/><path class="b" d="M614.231,257.431c2.046,2.173,4.338,4.476,7.3,4.855,5.228.669,8.987-4.738,11.381-9.434a4.609,4.609,0,0,0,4.81,4.264,9.5,9.5,0,0,0,3.618-1.414,71.273,71.273,0,0,1,33.766-8.729,3.646,3.646,0,0,1,2.784-4.009c2.4-.476,4.562,1.6,5.72,3.755s1.88,4.654,3.719,6.267,5.4,1.543,6.127-.793c.7-2.243-1.639-4.156-3.581-5.478s-3.988-3.77-2.68-5.722c9.918-2.2,19.9-4.4,30.047-4.836a12.583,12.583,0,0,0,5.058-.871c1.548-.76,2.778-2.484,2.362-4.157a11.454,11.454,0,0,1-11.952-4.508c14.082-1.162,29.06-2.153,41.54,4.474,1.5,3.215-6.135,5.89-4.093,8.79.651.925,1.956,1.033,3.087,1.054,8.673.161,17.4.319,25.97-.99,3.134-.478,6.3-1.154,9.445-.766,5.24.646,9.722,4.143,14.877,5.283,2.1.464,4.451.48,6.22-.741s2.529-4,1.08-5.586c4.854-4.757,12.91-3.578,19.313-1.3s12.47,5.951,19.247,6.458c4.86.364,9.788-.943,14.59-.112,3.018.522,5.826,1.865,8.776,2.69,5.578,1.56,11.479,1.231,17.271,1.306a121.015,121.015,0,0,1,43.126,8.569,12.82,12.82,0,0,1,4.794,2.833,4.7,4.7,0,0,1,1.07,5.158l-14.189-2.073c1.337,2.632,4.8,3.08,7.6,3.988s5.721,4.01,4.033,6.431c-3.043-.969-5.8,2.074-7.338,4.873s-3.411,6.152-6.6,6.323c-2.856.153-6.31-2.279-8.171-.108a55.742,55.742,0,0,1,6.566,10.5c1.839,3.831,3.149,8.659.663,12.107a3.14,3.14,0,0,1-1.678,1.3c-2.03.514-3.349-1.97-4.8-3.475-1.835-1.9-4.609-2.434-7.094-3.324s-5.1-2.64-5.3-5.271c-.121-1.637.744-3.16,1.38-4.673a18,18,0,0,0,1.368-8.075,9.172,9.172,0,0,0-2.357-6.084c-1.6-1.552-4.35-2.044-6.062-.623-.8.663-1.44,1.724-2.477,1.764-1.834.07-3.241-3.127-4.717-2.035a5.012,5.012,0,0,1-.681,3.352c-4.4,3.828-11.165,2.209-16.839,3.561a31.607,31.607,0,0,0-7.683,3.355,4.944,4.944,0,0,0-2.2,1.843c-.708,1.377.073,3.14,1.321,4.055a10.489,10.489,0,0,0,4.357,1.487c6.918,1.31,13.938,3.339,19.4,7.782s9.044,11.79,7.316,18.616L881.2,306.3q.777,8.211.882,16.467a7.4,7.4,0,0,1-.432,3.167c-.973,2.148-3.609,2.871-5.919,3.345a4.636,4.636,0,0,0-3.559,5.94c.821,2.675,2.867,4.761,4.741,6.839s3.718,4.44,3.963,7.228-1.858,5.93-4.649,5.736c-2.116-.147-3.686-2.041-4.589-3.961s-1.44-4.058-2.8-5.689c-4.105-4.937-13.326-2.822-17-8.085a8.316,8.316,0,0,0-1.72,7.914c1.711-1.071,4.053-.076,5.338,1.48s1.892,3.551,2.9,5.3c1.362,2.359,3.53,4.449,3.72,7.166a23.407,23.407,0,0,0,.052,3.082c.338,1.646,1.729,2.828,2.694,4.2,2.245,3.2,2.134,7.6.687,11.233s-4.046,6.668-6.621,9.611c-4.5,5.14-9.086,10.251-14.417,14.52a15.144,15.144,0,0,0-4.092,4.119c-.948,1.7-1,4.093.46,5.389-1.042.052-2.91.565-3.952.617a91.943,91.943,0,0,1-.238-12.569c-4.111-1.974-8.538,3.313-8.007,7.842s3.807,8.165,6.139,12.084c1.706,2.866,2.973,6.207,2.4,9.494s-3.5,6.318-6.825,6.028c-5.285-.461-7.5-8.048-12.729-8.916a2.137,2.137,0,0,0-1.377.137c-.777.426-.912,1.466-.956,2.351-.214,4.344-.4,8.861,1.3,12.866,2.481,5.859,8.889,10.78,7.545,17-7.242-3.366-11.007-11.488-12.717-19.289s-1.995-15.991-5.059-23.365c-2.327,2.983-7.218.517-9.344-2.612-2.016-2.966-3.257-6.4-5.212-9.4s-4.952-5.7-8.534-5.864c-3.756-.173-7.014,2.4-9.879,4.84-2.356,2-4.775,4.084-6.151,6.853-2,4.029-1.48,8.778-1.576,13.276-.1,4.863-1.135,9.994-4.45,13.555s-9.433,4.8-13.089,1.592c-1.909-1.675-2.833-4.178-3.656-6.58a322.154,322.154,0,0,1-9.9-35.334c-.614,2.729-3.011,6.246-5.3,4.639a4.743,4.743,0,0,1-1.221-1.573c-4.27-7.237-12.178-11.578-20.168-14.181s-16.4-3.817-24.3-6.678a61.546,61.546,0,0,1-12.6-6.279,9.914,9.914,0,0,0-.606,10.14,8.078,8.078,0,0,0,9.114,3.814c1.755-.561,3.236-1.778,4.977-2.38s4.077-.306,4.839,1.371c.729,1.605-.373,3.547.174,5.224.832,2.553,4.682,2.75,6.029,5.073,1,1.729.178,4.024-1.253,5.419s-3.339,2.16-5.085,3.131c-5.665,3.15-9.694,8.528-14.645,12.712s-11.936,7.239-17.837,4.555c1.407-7.122-7.077-12.351-8.638-19.441-.514-2.334-.247-4.812-.981-7.087-1.062-3.292-3.983-5.556-6.379-8.051a31.6,31.6,0,0,1-8.667-22.99c.13-2.93.668-5.908,0-8.764s-3.032-5.62-5.962-5.491c-6.692.3-15.124.793-18.635-4.912-1.253-2.036-1.8-5.018.013-6.578,1.278-1.1,3.165-1,4.843-.832l15.079,1.483c3.527.347,7.339.633,10.365-1.211s4.338-6.738,1.536-8.907c-2.048-1.585-5.716-1.5-6.311-4.019-.5-2.1,1.827-4.48.573-6.234-.9-1.258-2.922-.909-4.148.034s-2.115,2.322-3.486,3.035c-2.406,1.252-5.281.06-7.87-.75s-6.059-.879-7.315,1.526c-1.4,2.689,1.246,6.212-.148,8.907-1.842,3.562-8.082,1.535-10.67,4.6-2.969,3.516,2.021,8.759,1.019,13.251a8.248,8.248,0,0,1-8.127-.457,7.893,7.893,0,0,1-3.411-7.35c.248-2.021,1.3-4.083.6-5.993-.571-1.544-2.121-2.463-3.562-3.259l-14.653-8.1c-1.361,2.524.359,5.652,2.51,7.548s4.845,3.323,6.258,5.818a7.637,7.637,0,0,1-2.874,10.068,1.763,1.763,0,0,1-1.453.253,2.026,2.026,0,0,1-.942-1.267c-2.585-6.616-6.467-13.14-12.673-16.6s-15.123-2.746-19.193,3.077c-.966,1.383-1.615,2.959-2.457,4.421-4.474,7.768-14.065,11.446-23.026,11.206a4.571,4.571,0,0,1-2.512-.59c-1.448-1-1.383-3.123-1.161-4.869l.94-7.41c.189-1.488.463-3.132,1.64-4.061,1.66-1.309,4.055-.483,6.169-.513a7.818,7.818,0,0,0,7.1-5.476,8.811,8.811,0,0,0-2.453-8.762c-.969-.91-2.27-2.053-1.758-3.28a2.712,2.712,0,0,1,1.9-1.28c3.8-1.1,7.81-1.392,11.544-2.693s7.355-3.963,8.24-7.817c.271-1.181.394-2.612,1.455-3.2a4.364,4.364,0,0,1,1.682-.344,8.184,8.184,0,0,0,7.02-8.531c1.79-1.25,4.3-.331,6.028,1s3.26,3.087,5.366,3.66c3.926,1.068,7.72-2.407,11.788-2.424,1.711-.007,3.482.6,5.092.018,1.632-.588,2.606-2.212,3.858-3.412s3.45-1.932,4.606-.639l-.985-7.294a14.339,14.339,0,0,0,11.67-2.11l-12.727-4.3a2.767,2.767,0,0,1-1.19-.636c-.925-1-.006-2.549.746-3.682,1.8-2.709,2.1-7.173-.858-8.521-2.02-.921-4.34.184-6.279,1.266l-9.289,5.179c-.3,1.766,1.864,2.766,3.2,3.956a5.369,5.369,0,0,1-3.5,9.381,6.69,6.69,0,0,1,1.195,5.672l-6.25.449a2.708,2.708,0,0,1-2.027-.4c-.668-.594-.578-1.634-.733-2.514-.374-2.125-2.455-3.615-4.579-4a16.1,16.1,0,0,0-6.4.591,3.82,3.82,0,0,1-2.751-.063,2.747,2.747,0,0,1-1.088-1.374c-.922-2.235-.06-4.863,1.421-6.775a37.591,37.591,0,0,1,5.328-4.9,31.055,31.055,0,0,0,9.234-14.323c3.441-1.442,7-3.4,10.443-4.842a31.957,31.957,0,0,1,17.177-3.328l11.652.223c3.45.066,6.993.15,10.183,1.465s5.993,4.16,6.213,7.6a2.334,2.334,0,0,1-.747,2.134,2.754,2.754,0,0,1-1.473.332C618.82,256.516,617.448,257.318,614.231,257.431Z" transform="translate(-93.315 -15.277)"/><path class="b" d="M520.786,308.83a3.409,3.409,0,0,0,.93-3.429,6.378,6.378,0,0,0-6.6,1.247,11.128,11.128,0,0,0-1.769,2.339c-1.531,2.5-2.885,5.482-2,8.274a2.349,2.349,0,0,0,1.076,1.471,2.827,2.827,0,0,0,1.254.2,42.011,42.011,0,0,0,5.046-.311c1.028-.126,2.222-.416,2.62-1.373.522-1.257-.742-2.68-.373-3.991a4.359,4.359,0,0,1,1.077-1.542,2.039,2.039,0,0,0,.635-1.711c-.149-.615-1.091-.964-1.43-.43" transform="translate(-92.742 -30.159)"/><path class="b" d="M532.338,295.677a14.117,14.117,0,0,0-4.572-.287,2,2,0,0,0-.974.221,1.627,1.627,0,0,0-.6.87,4.32,4.32,0,0,0,2.515,5.294,5.407,5.407,0,0,1,1.56.627c1.293,1,.469,3.054.714,4.673.275,1.817,2.034,3.343,1.712,5.152-.254,1.426-1.777,2.554-1.532,3.982.257,1.495,2.154,1.944,3.666,2.064a4.61,4.61,0,0,0,2.6-.3,4.022,4.022,0,0,0,1.638-2.373,15.211,15.211,0,0,0,.766-5.727,5.432,5.432,0,0,0-.646-2.528,14.115,14.115,0,0,0-1.509-1.728C534.774,302.249,537.824,297.223,532.338,295.677Z" transform="translate(-95.548 -28.344)"/><path class="c" d="M856.835,564.957S634.974,437.6,539.46,461.734c0,0-202.423,21.784-225.883,69.709,0,0-64.347-201.083-87.806-207.785" transform="translate(-39.129 -33.67)"/><path class="c" d="M313.577,531.133c37.2-99.2,372.338-209.126,372.338-209.126C638.325,334.072,539.46,461.424,539.46,461.424S330.333,309.272,225.77,323.347c0,0,460.479,15.081,631.064,241.3" transform="translate(-39.129 -33.36)"/><circle class="d" cx="9.719" cy="9.719" r="9.719" transform="translate(176.922 280.268)"/><circle class="d" cx="9.719" cy="9.719" r="9.719" transform="translate(264.728 488.054)"/><circle class="d" cx="9.719" cy="9.719" r="9.719" transform="translate(637.066 278.928)"/><circle class="d" cx="9.719" cy="9.719" r="9.719" transform="translate(807.987 521.568)"/><circle class="d" cx="9.719" cy="9.719" r="9.719" transform="translate(490.611 418.345)"/></g></svg>